<svg xmlns="http://www.w3.org/2000/svg" viewBox="0 0 64 64">
  <!-- background circle -->
  <circle cx="32" cy="32" r="32" fill="#1a1a2e"/>
  <!-- trophy cup body -->
  <path d="M22 14 h20 v16 c0 8-4 13-10 15 c-6-2-10-7-10-15 Z" fill="#FFD966" stroke="#B8860B" stroke-width="1.5"/>
  <!-- handles -->
  <path d="M22 18 h-5 a5 5 0 0 0 0 10 h5" fill="none" stroke="#FFD966" stroke-width="2.5" stroke-linecap="round"/>
  <path d="M42 18 h5 a5 5 0 0 1 0 10 h-5" fill="none" stroke="#FFD966" stroke-width="2.5" stroke-linecap="round"/>
  <!-- stem -->
  <rect x="29" y="45" width="6" height="7" rx="1" fill="#FFD966"/>
  <!-- base -->
  <rect x="22" y="52" width="20" height="4" rx="2" fill="#FFD966" stroke="#B8860B" stroke-width="1"/>
  <!-- star inside cup -->
  <path d="M32 20 l1.8 5.5 h5.8 l-4.7 3.4 1.8 5.5 L32 31 l-4.7 3.4 1.8-5.5-4.7-3.4 h5.8 Z" fill="#1a1a2e" opacity="0.35"/>
</svg>
